# xmcd CD database file
#
# Track frame offsets:
#	150
#	12088
#	20382
#	31999
#	47593
#	64388
#	73990
#	88201
#	97289
#	113903
#	131925
#	145041
#
# Disc length: 2422 seconds
#
# Revision: 0
# Processed by: cddbd v1.5.2PL0 Copyright (c) Steve Scherf et al.
# Submitted via: CDex 1.50
#
DISCID=b009740c
DTITLE=Claudio Della Corte - Fever Swing
DYEAR=2006
DGENRE=Jazz
TTITLE0=Avalon
TTITLE1=Nziria
TTITLE2=Crazy Rhythm
TTITLE3=Swing 304
TTITLE4=Oh, Lady be Good
TTITLE5=Whispering
TTITLE6=Fever Swing
TTITLE7=La Valse à Romain
TTITLE8=Out of Nowhere
TTITLE9=Some of these Days
TTITLE10=L'enchanteresse
TTITLE11=Nuages
EXTD=YEAR: 2006
EXTT0=
EXTT1=
EXTT2=
EXTT3=
EXTT4=
EXTT5=
EXTT6=
EXTT7=
EXTT8=
EXTT9=
EXTT10=
EXTT11=
PLAYORDER=
